<?xml version="1.0" encoding="iso-8859-1"?>
<!-- Generator: Adobe Illustrator 19.0.0, SVG Export Plug-In . SVG Version: 6.00 Build 0)  -->
<svg version="1.1" id="Capa_1" xmlns="http://www.w3.org/2000/svg" xmlns:xlink="http://www.w3.org/1999/xlink" x="0px" y="0px"
	 viewBox="0 0 512 512" style="enable-background:new 0 0 512 512;" xml:space="preserve">
<g>
	<path style="fill:#F7BC14;" d="M350.518,192.872c-8.227,0-16.474-3.498-22.06-9.357c-7.755-8.137-9.434-19.657-4.381-30.066
		c8.721-17.97,25.458-24.765,40.223-30.761c10.93-4.439,21.251-8.631,28.598-16.821c8.386-9.35,12.463-23.816,12.463-44.223V30.596
		c-5.803,0.588-11.08,3.679-14.414,8.513l-4.449,6.453c-6.09,8.832-16.13,14.105-26.858,14.105h-26.804
		c-4.267,0-7.726-3.459-7.726-7.726s3.459-7.726,7.726-7.726h26.804c5.646,0,10.931-2.776,14.137-7.425l4.449-6.453
		c6.584-9.547,17.437-15.266,29.035-15.295c3.495-0.053,7.042,1.415,9.583,3.95c2.559,2.552,3.97,5.952,3.97,9.57v33.083
		c0,24.387-5.369,42.227-16.413,54.541c-9.729,10.846-22.774,16.145-34.284,20.819c-13.376,5.432-26.007,10.56-32.139,23.192
		c-2.262,4.661-1.671,9.156,1.665,12.656c2.725,2.859,6.791,4.566,10.875,4.566c0.001,0,0.002,0,0.003,0
		c1.738,0,3.344-0.31,4.776-0.922c6.373-2.723,6.998-10.215,6.803-14.439c-0.196-4.263,3.1-7.878,7.363-8.075
		c4.257-0.185,7.877,3.101,8.074,7.362c0.635,13.788-5.41,24.764-16.17,29.362c-3.362,1.437-7.011,2.164-10.845,2.164
		C350.522,192.872,350.52,192.872,350.518,192.872z M407.32,30.495c0.011,0.003,0.011-0.001,0.017,0
		C407.331,30.495,407.326,30.495,407.32,30.495z"/>
	<path style="fill:#F7BC14;" d="M161.48,192.872c-0.002,0-0.003,0-0.005,0c-3.833,0-7.481-0.727-10.842-2.163
		c-10.762-4.599-16.807-15.575-16.172-29.363c0.197-4.263,3.816-7.531,8.074-7.362c4.263,0.196,7.559,3.812,7.363,8.075
		c-0.195,4.223,0.431,11.715,6.805,14.44c1.431,0.611,3.037,0.921,4.773,0.921c0.001,0,0.002,0,0.003,0
		c4.086,0,8.151-1.707,10.877-4.566c3.336-3.5,3.927-7.995,1.665-12.655c-6.131-12.633-18.762-17.762-32.135-23.191
		c-11.513-4.676-24.559-9.975-34.287-20.821c-11.044-12.314-16.413-30.154-16.413-54.541V28.561c0-3.618,1.411-7.017,3.973-9.572
		c2.538-2.533,6.03-3.994,9.617-3.948c11.561,0.029,22.415,5.748,28.998,15.295l4.449,6.453c3.206,4.649,8.491,7.425,14.136,7.425
		h26.804c4.267,0,7.726,3.459,7.726,7.726s-3.459,7.726-7.726,7.726h-26.804c-10.727,0-20.768-5.273-26.858-14.105l-4.449-6.453
		c-3.339-4.842-8.626-7.935-14.414-8.515v31.05c0,20.407,4.077,34.873,12.464,44.223c7.346,8.19,17.667,12.382,28.595,16.82
		c14.768,5.997,31.504,12.792,40.225,30.763c5.052,10.408,3.374,21.928-4.381,30.065
		C177.956,189.374,169.709,192.872,161.48,192.872z M104.7,30.495c0.005,0,0.013,0.004,0.015,0
		C104.71,30.495,104.704,30.495,104.7,30.495z"/>
</g>
<path style="fill:#FFB125;" d="M207.334,326.733h97.83c-40.524-48.547-36.295-118.512-36.295-118.512h-12.62h-12.62
	C243.629,208.221,247.858,278.186,207.334,326.733z"/>
<path style="fill:#FF901D;" d="M268.868,208.221h-12.62h-12.62c0,0,0.705,11.692-1.229,28.831
	c-3.423,30.344,4.367,61.066,22.888,85.345c1.115,1.462,2.268,2.908,3.46,4.336h36.416
	C264.64,278.186,268.868,208.221,268.868,208.221z"/>
<path style="fill:#FFB125;" d="M164.699,12.552v73.29c0,51.973,24.702,100.853,66.546,131.68l24.811,18.279l24.811-18.279
	c41.844-30.827,66.546-79.707,66.546-131.68v-73.29C347.413,12.552,164.699,12.552,164.699,12.552z"/>
<path style="fill:#FF901D;" d="M311.083,12.552v73.291c0,51.974-24.702,100.853-66.546,131.68l-6.646,4.896l18.165,13.382
	l24.811-18.279c41.844-30.827,66.546-79.707,66.546-131.68v-73.29H311.083z"/>
<path style="fill:#FED130;" d="M354.127,25.104H157.985c-2.857,0-5.173-2.316-5.173-5.173V5.173c0-2.857,2.316-5.173,5.173-5.173
	h196.142c2.857,0,5.173,2.316,5.173,5.173v14.758C359.3,22.788,356.984,25.104,354.127,25.104z"/>
<path style="fill:#F7BC14;" d="M354.127,0h-30.771v25.104h30.771c2.857,0,5.173-2.316,5.173-5.173V5.173
	C359.3,2.316,356.984,0,354.127,0z"/>
<path style="fill:#FED130;" d="M270.152,244.559h-28.191c-5.285,0-9.57-4.285-9.57-9.57v-4.135c0-5.285,4.285-9.57,9.57-9.57h28.191
	c5.285,0,9.57,4.285,9.57,9.57v4.135C279.722,240.274,275.437,244.559,270.152,244.559z"/>
<rect x="152.64" y="323.01" style="fill:#AF8A82;" width="206.73" height="183.82"/>
<path style="fill:#FFB125;" d="M311.602,458.701H200.398c-2.131,0-3.859-1.728-3.859-3.859v-79.846c0-2.131,1.728-3.859,3.859-3.859
	h111.204c2.131,0,3.859,1.728,3.859,3.859v79.846C315.461,456.973,313.734,458.701,311.602,458.701z"/>
<path style="fill:#FF901D;" d="M311.602,371.137h-31.955v87.564h31.955c2.131,0,3.859-1.728,3.859-3.859v-79.846
	C315.461,372.864,313.734,371.137,311.602,371.137z"/>
<rect x="323.55" y="323.01" style="fill:#927266;" width="35.815" height="183.82"/>
<path style="fill:#AF8A82;" d="M370.73,348.95H141.27c-3.299,0-5.973-2.674-5.973-5.973v-19.165c0-3.299,2.674-5.973,5.973-5.973
	h229.46c3.299,0,5.973,2.674,5.973,5.973v19.165C376.703,346.275,374.029,348.95,370.73,348.95z"/>
<path style="fill:#927266;" d="M370.73,317.838h-29.97v31.112h29.97c3.299,0,5.973-2.674,5.973-5.973v-19.165
	C376.703,320.512,374.029,317.838,370.73,317.838z"/>
<path style="fill:#AF8A82;" d="M370.73,512H141.27c-3.299,0-5.973-2.674-5.973-5.973v-19.165c0-3.299,2.674-5.973,5.973-5.973
	h229.46c3.299,0,5.973,2.674,5.973,5.973v19.165C376.703,509.326,374.029,512,370.73,512z"/>
<path style="fill:#927266;" d="M370.73,480.888h-29.97V512h29.97c3.299,0,5.973-2.674,5.973-5.973v-19.165
	C376.703,483.562,374.029,480.888,370.73,480.888z"/>
<path style="fill:#2D5872;" d="M262.294,425.921v-1.423c0-5.018-3.071-5.993-7.19-5.993c-2.547,0-3.371-2.246-3.371-4.494
	s0.823-4.494,3.371-4.494c2.846,0,5.842-0.374,5.842-6.441c0-4.345-2.471-5.394-5.543-5.394c-3.67,0-5.543,0.899-5.543,3.821
	c0,2.546-1.123,4.269-5.468,4.269c-5.393,0-6.067-1.124-6.067-4.719c0-5.843,4.195-13.407,17.078-13.407
	c9.513,0,16.704,3.445,16.704,13.557c0,5.468-2.022,10.561-5.767,12.284c4.419,1.648,7.64,4.944,7.64,11.011v1.423
	c0,12.284-8.464,16.929-18.951,16.929c-12.883,0-17.827-7.866-17.827-14.157c0-3.371,1.423-4.27,5.543-4.27
	c4.794,0,5.993,1.049,5.993,3.895c0,3.521,3.295,4.344,6.666,4.344C260.496,432.662,262.294,430.79,262.294,425.921z"/>
<g>
</g>
<g>
</g>
<g>
</g>
<g>
</g>
<g>
</g>
<g>
</g>
<g>
</g>
<g>
</g>
<g>
</g>
<g>
</g>
<g>
</g>
<g>
</g>
<g>
</g>
<g>
</g>
<g>
</g>
</svg>
