<svg width="29" height="31" viewBox="0 0 29 31" fill="none" xmlns="http://www.w3.org/2000/svg">
<path d="M0 0.0616455H29V19.8763H0V0.0616455Z" fill="#FFDA2D"/>
<path d="M29 19.8763L14.5 17.242V0.0616455H29V19.8763Z" fill="#FDBF00"/>
<path d="M14.5 8.46384L0 19.8764H14.5H29L22.5476 14.7515L14.5 8.46384Z" fill="#FDBF00"/>
<path d="M14.5 19.8764V8.46384L29 19.8764H14.5Z" fill="#F6A313"/>
<path d="M29 0.0616455H0L14.5 12.2184L29 0.0616455Z" fill="#FFE56C"/>
<path d="M14.5 12.2184V0.0616455H29L14.5 12.2184Z" fill="#FFDA2D"/>
<path d="M21.8962 26.9383C17.9685 26.9383 14.7732 23.7429 14.7732 19.8152C14.7732 15.8875 17.9685 12.6922 21.8962 12.6922C23.7983 12.6922 25.5842 13.4335 26.9246 14.7797C28.2629 16.1238 29 17.9121 29 19.8152C29 21.7184 28.2629 23.5067 26.9246 24.8507C25.5841 26.1969 23.7984 26.9383 21.8962 26.9383Z" fill="#FA235E"/>
<path d="M26.9246 14.7797C25.5841 13.4336 23.7983 12.6922 21.8962 12.6922C21.893 12.6922 21.8898 12.6923 21.8865 12.6923V26.9382C21.8898 26.9382 21.893 26.9383 21.8962 26.9383C23.7984 26.9383 25.5841 26.197 26.9246 24.8507C28.2629 23.5067 29 21.7183 29 19.8152C29 17.9121 28.2629 16.1238 26.9246 14.7797V14.7797Z" fill="#C91341"/>
<path d="M21.3066 24.043C21.8216 24.043 22.1999 23.9587 22.4414 23.79C22.5736 23.6989 22.6875 23.6055 22.7832 23.5098C23.1068 23.1862 23.2686 22.4297 23.2686 21.2402V19.3125C23.2686 18.5104 23.2367 17.9408 23.1729 17.6035C22.986 16.5827 22.4027 16.0723 21.4229 16.0723C20.5752 16.0723 20.0033 16.332 19.707 16.8516C19.5247 17.1706 19.4085 17.5329 19.3584 17.9385C19.3083 18.3395 19.2832 18.834 19.2832 19.4219V20.7686C19.2832 21.7438 19.3516 22.4342 19.4883 22.8398C19.7617 23.6419 20.3678 24.043 21.3066 24.043ZM23.0293 24.8086C22.8197 24.9089 22.5713 24.9909 22.2842 25.0547C21.9971 25.1185 21.6507 25.1504 21.2451 25.1504C20.8441 25.1504 20.4635 25.1003 20.1035 25C19.4062 24.804 18.9027 24.4759 18.5928 24.0156C18.2874 23.5508 18.096 23.0449 18.0186 22.498C17.9411 21.9512 17.9023 21.3359 17.9023 20.6523V19.5996C17.9023 18.6426 17.9388 17.9977 18.0117 17.665C18.1667 16.9723 18.3421 16.4847 18.5381 16.2021C19.1123 15.3773 19.985 14.9648 21.1562 14.9648C22.5508 14.9648 23.4896 15.3682 23.9727 16.1748C24.2689 16.6624 24.4535 17.1865 24.5264 17.7471C24.6038 18.3076 24.6426 18.9548 24.6426 19.6885V20.5566C24.6426 21.4772 24.6061 22.1061 24.5332 22.4434C24.4648 22.7806 24.3896 23.0677 24.3076 23.3047C24.2301 23.5417 24.1344 23.7445 24.0205 23.9131C23.9111 24.0771 23.7721 24.2435 23.6035 24.4121C23.4349 24.5762 23.2435 24.7083 23.0293 24.8086Z" fill="white"/>
</svg>
