<svg width="323" height="35" viewBox="0 0 323 35" fill="none" xmlns="http://www.w3.org/2000/svg">
<path d="M10.64 1L0 7.16V21.24C0 27.72 5.2 33 11.68 33C13.84 33 15.84 32.44 17.6 31.48L26.24 26.52C29.68 24.68 32 21.16 32 17V2.28L29.92 1.08L20.8 5.96V21.32C20.8 21.96 20.72 22.6 20.64 23.24C20.48 23.88 20.32 24.44 20.08 25L19.84 25.48C19.52 25.48 17.52 24.76 16.48 24.04C16 23.72 15.6 23.4 15.2 23C14.8 22.6 14.48 22.2 14.16 21.72C13.84 21.24 13.6 20.76 13.36 20.28C13.12 19.8 12.96 19.24 12.88 18.68C12.8 18.12 12.8 17.56 12.8 17V2.28L10.64 1ZM15.84 29.96C15.28 30.2 14.48 30.52 13.84 30.68C13.2 30.84 12.64 30.84 12 30.84C11.36 30.84 10.72 30.76 10.08 30.6C9.44 30.44 8.88 30.28 8.32 30.04C7.76 29.8 7.2 29.48 6.72 29.16C5.28 28.28 4.56 27.48 4 26.6C3.68 26.12 3.36 25.56 3.12 25C2.88 24.44 2.72 23.8 2.56 23.16C2.4 22.52 2.4 21.88 2.4 21.24V8.36L10.4 3.48V17C10.4 22.12 14.16 26.44 18.96 27.48C18.8 27.72 18.64 27.96 18.4 28.12C17.52 29 16.8 29.56 15.84 29.96ZM29.44 18.76C29.36 19.32 29.12 19.88 28.96 20.36C28.72 20.84 28.48 21.32 28.16 21.8C27.84 22.28 26.88 23.48 25.6 24.2C24.32 24.92 23.12 25.16 22.4 25.32C22.88 24.04 23.2 22.76 23.2 21.32V7.16L29.6 3.48V17C29.6 17.64 29.6 18.2 29.44 18.76Z" fill="#1EB4E2"/>
<path d="M79.096 8.4L68.624 28H65.656L63.472 12.432L54.932 28H51.964L49.332 8.4H52.076L54.204 24.388L62.884 8.4H65.488L67.672 24.416L76.296 8.4H79.096ZM84.0321 28.168C82.6321 28.168 81.4094 27.9067 80.3641 27.384C79.3188 26.8427 78.5068 26.0867 77.9281 25.116C77.3494 24.1453 77.0601 23.0253 77.0601 21.756C77.0601 20.0947 77.4334 18.6013 78.1801 17.276C78.9268 15.9507 79.9628 14.9147 81.2881 14.168C82.6134 13.4027 84.1068 13.02 85.7681 13.02C87.1681 13.02 88.3908 13.2813 89.4361 13.804C90.4814 14.3267 91.2841 15.0733 91.8441 16.044C92.4228 16.996 92.7121 18.116 92.7121 19.404C92.7121 21.0653 92.3388 22.568 91.5921 23.912C90.8454 25.2373 89.8094 26.2827 88.4841 27.048C87.1774 27.7947 85.6934 28.168 84.0321 28.168ZM84.2001 25.816C85.3014 25.816 86.2908 25.5547 87.1681 25.032C88.0641 24.4907 88.7548 23.744 89.2401 22.792C89.7441 21.84 89.9961 20.7573 89.9961 19.544C89.9961 18.2187 89.6134 17.192 88.8481 16.464C88.0828 15.736 86.9908 15.372 85.5721 15.372C84.4708 15.372 83.4814 15.6427 82.6041 16.184C81.7268 16.7067 81.0361 17.444 80.5321 18.396C80.0281 19.348 79.7761 20.4307 79.7761 21.644C79.7761 22.9507 80.1588 23.9773 80.9241 24.724C81.7081 25.452 82.8001 25.816 84.2001 25.816ZM111.634 13.16L108.694 28H106.118L106.482 26.096C105.81 26.7867 105.016 27.3093 104.102 27.664C103.206 28 102.226 28.168 101.162 28.168C99.5189 28.168 98.2215 27.7293 97.2695 26.852C96.3175 25.9747 95.8415 24.752 95.8415 23.184C95.8415 22.6613 95.8975 22.092 96.0095 21.476L97.6615 13.16H100.35L98.6975 21.504C98.6042 22.008 98.5575 22.428 98.5575 22.764C98.5575 23.7347 98.8375 24.4813 99.3975 25.004C99.9762 25.508 100.826 25.76 101.946 25.76C103.364 25.76 104.54 25.3587 105.474 24.556C106.426 23.7533 107.06 22.5773 107.378 21.028L108.946 13.16H111.634ZM117.955 7.224H120.643L116.499 28H113.811L117.955 7.224ZM139.747 7.224L135.603 28H133.027L133.391 26.18C132.719 26.8147 131.935 27.3093 131.039 27.664C130.162 28 129.2 28.168 128.155 28.168C126.886 28.168 125.756 27.916 124.767 27.412C123.778 26.8893 123.003 26.1427 122.443 25.172C121.883 24.2013 121.603 23.0627 121.603 21.756C121.603 20.076 121.967 18.5733 122.695 17.248C123.423 15.9227 124.422 14.8867 125.691 14.14C126.979 13.3933 128.416 13.02 130.003 13.02C131.272 13.02 132.364 13.2533 133.279 13.72C134.212 14.168 134.912 14.8307 135.379 15.708L137.059 7.224H139.747ZM128.743 25.816C129.844 25.816 130.834 25.5547 131.711 25.032C132.607 24.4907 133.298 23.744 133.783 22.792C134.287 21.84 134.539 20.7573 134.539 19.544C134.539 18.2187 134.156 17.192 133.391 16.464C132.626 15.736 131.534 15.372 130.115 15.372C129.014 15.372 128.024 15.6427 127.147 16.184C126.27 16.7067 125.579 17.444 125.075 18.396C124.571 19.348 124.319 20.4307 124.319 21.644C124.319 22.9507 124.702 23.9773 125.467 24.724C126.251 25.452 127.343 25.816 128.743 25.816ZM157.449 21.308L156.105 28H153.305L154.677 21.14L149.497 8.4H152.241L156.469 18.788L164.841 8.4H167.809L157.449 21.308ZM171.641 28.168C170.241 28.168 169.019 27.9067 167.973 27.384C166.928 26.8427 166.116 26.0867 165.537 25.116C164.959 24.1453 164.669 23.0253 164.669 21.756C164.669 20.0947 165.043 18.6013 165.789 17.276C166.536 15.9507 167.572 14.9147 168.897 14.168C170.223 13.4027 171.716 13.02 173.377 13.02C174.777 13.02 176 13.2813 177.045 13.804C178.091 14.3267 178.893 15.0733 179.453 16.044C180.032 16.996 180.321 18.116 180.321 19.404C180.321 21.0653 179.948 22.568 179.201 23.912C178.455 25.2373 177.419 26.2827 176.093 27.048C174.787 27.7947 173.303 28.168 171.641 28.168ZM171.809 25.816C172.911 25.816 173.9 25.5547 174.777 25.032C175.673 24.4907 176.364 23.744 176.849 22.792C177.353 21.84 177.605 20.7573 177.605 19.544C177.605 18.2187 177.223 17.192 176.457 16.464C175.692 15.736 174.6 15.372 173.181 15.372C172.08 15.372 171.091 15.6427 170.213 16.184C169.336 16.7067 168.645 17.444 168.141 18.396C167.637 19.348 167.385 20.4307 167.385 21.644C167.385 22.9507 167.768 23.9773 168.533 24.724C169.317 25.452 170.409 25.816 171.809 25.816ZM199.243 13.16L196.303 28H193.727L194.091 26.096C193.419 26.7867 192.626 27.3093 191.711 27.664C190.815 28 189.835 28.168 188.771 28.168C187.128 28.168 185.831 27.7293 184.879 26.852C183.927 25.9747 183.451 24.752 183.451 23.184C183.451 22.6613 183.507 22.092 183.619 21.476L185.271 13.16H187.959L186.307 21.504C186.214 22.008 186.167 22.428 186.167 22.764C186.167 23.7347 186.447 24.4813 187.007 25.004C187.586 25.508 188.435 25.76 189.555 25.76C190.974 25.76 192.15 25.3587 193.083 24.556C194.035 23.7533 194.67 22.5773 194.987 21.028L196.555 13.16H199.243ZM227.756 14.14C227.756 16.0627 227.242 17.668 226.216 18.956C225.189 20.244 223.742 21.1307 221.876 21.616L225.46 28H222.492L219.076 22.008H218.544H213.308L212.132 28H209.304L213.224 8.4H220.532C222.828 8.4 224.601 8.904 225.852 9.912C227.121 10.9013 227.756 12.3107 227.756 14.14ZM218.628 19.628C220.644 19.628 222.202 19.18 223.304 18.284C224.405 17.388 224.956 16.0907 224.956 14.392C224.956 13.216 224.554 12.3293 223.752 11.732C222.949 11.1347 221.792 10.836 220.28 10.836H215.548L213.784 19.628H218.628ZM246.195 13.16L243.255 28H240.679L241.043 26.18C240.371 26.8147 239.587 27.3093 238.691 27.664C237.814 28 236.853 28.168 235.807 28.168C234.538 28.168 233.409 27.916 232.419 27.412C231.43 26.8893 230.655 26.1427 230.095 25.172C229.535 24.2013 229.255 23.0627 229.255 21.756C229.255 20.076 229.619 18.5733 230.347 17.248C231.075 15.9227 232.074 14.8867 233.343 14.14C234.631 13.3933 236.069 13.02 237.655 13.02C238.925 13.02 240.007 13.244 240.903 13.692C241.818 14.14 242.518 14.8027 243.003 15.68L243.507 13.16H246.195ZM236.395 25.816C237.497 25.816 238.486 25.5547 239.363 25.032C240.259 24.4907 240.95 23.744 241.435 22.792C241.939 21.84 242.191 20.7573 242.191 19.544C242.191 18.2187 241.809 17.192 241.043 16.464C240.278 15.736 239.186 15.372 237.767 15.372C236.666 15.372 235.677 15.6427 234.799 16.184C233.922 16.7067 233.231 17.444 232.727 18.396C232.223 19.348 231.971 20.4307 231.971 21.644C231.971 22.9507 232.354 23.9773 233.119 24.724C233.903 25.452 234.995 25.816 236.395 25.816ZM252.345 23.268C252.289 23.548 252.261 23.8093 252.261 24.052C252.261 24.6493 252.42 25.1067 252.737 25.424C253.073 25.7413 253.568 25.9 254.221 25.9C255.005 25.9 255.715 25.6667 256.349 25.2L256.909 27.244C256.013 27.86 254.865 28.168 253.465 28.168C252.289 28.168 251.337 27.8413 250.609 27.188C249.9 26.516 249.545 25.6013 249.545 24.444C249.545 24.052 249.583 23.6787 249.657 23.324L251.253 15.372H248.733L249.153 13.16H251.701L252.345 9.912H255.033L254.389 13.16H258.645L258.197 15.372H253.941L252.345 23.268ZM270.491 13.02C272.19 13.02 273.506 13.4493 274.439 14.308C275.391 15.1667 275.867 16.38 275.867 17.948C275.867 18.4893 275.811 19.068 275.699 19.684L274.047 28H271.359L273.011 19.684C273.104 19.18 273.151 18.7693 273.151 18.452C273.151 17.4813 272.862 16.7347 272.283 16.212C271.704 15.6893 270.846 15.428 269.707 15.428C268.251 15.428 267.047 15.8293 266.095 16.632C265.162 17.416 264.536 18.592 264.219 20.16L262.651 28H259.963L264.107 7.224H266.795L265.255 14.896C266.58 13.6453 268.326 13.02 270.491 13.02ZM281.708 21.42V21.588C281.708 22.9693 282.1 24.024 282.884 24.752C283.668 25.4613 284.844 25.816 286.412 25.816C287.326 25.816 288.185 25.6667 288.988 25.368C289.79 25.0507 290.462 24.6307 291.004 24.108L292.152 26.04C291.424 26.712 290.537 27.2347 289.492 27.608C288.446 27.9813 287.345 28.168 286.188 28.168C284.732 28.168 283.472 27.9067 282.408 27.384C281.344 26.8613 280.522 26.1147 279.944 25.144C279.365 24.1733 279.076 23.0347 279.076 21.728C279.076 20.0667 279.43 18.5733 280.14 17.248C280.868 15.9227 281.866 14.8867 283.136 14.14C284.424 13.3933 285.861 13.02 287.448 13.02C289.464 13.02 291.069 13.5987 292.264 14.756C293.477 15.8947 294.084 17.4533 294.084 19.432C294.084 20.0293 294.018 20.692 293.888 21.42H281.708ZM287.336 15.26C286.01 15.26 284.872 15.6333 283.92 16.38C282.968 17.1267 282.324 18.1533 281.988 19.46H291.564C291.638 18.1347 291.284 17.108 290.5 16.38C289.734 15.6333 288.68 15.26 287.336 15.26ZM301.317 15.372C301.97 14.5507 302.773 13.9533 303.725 13.58C304.677 13.2067 305.834 13.02 307.197 13.02L306.693 15.624C306.525 15.6053 306.292 15.596 305.993 15.596C302.913 15.596 301.046 17.2573 300.393 20.58L298.909 28H296.221L299.161 13.16H301.737L301.317 15.372ZM312.964 21.812C313.095 21.0653 313.347 20.412 313.72 19.852C314.093 19.2733 314.504 18.7973 314.952 18.424C315.4 18.032 315.988 17.5653 316.716 17.024C317.388 16.5387 317.911 16.1373 318.284 15.82C318.657 15.484 318.965 15.092 319.208 14.644C319.469 14.196 319.6 13.692 319.6 13.132C319.6 12.3293 319.283 11.704 318.648 11.256C318.032 10.7893 317.145 10.556 315.988 10.556C313.785 10.556 312.012 11.3027 310.668 12.796L308.904 11.2C309.725 10.2293 310.771 9.48267 312.04 8.96C313.309 8.43733 314.765 8.176 316.408 8.176C318.256 8.176 319.712 8.57733 320.776 9.38C321.859 10.1827 322.4 11.2747 322.4 12.656C322.4 13.552 322.241 14.3267 321.924 14.98C321.607 15.6333 321.215 16.1747 320.748 16.604C320.281 17.0333 319.665 17.528 318.9 18.088C317.967 18.7787 317.257 19.3853 316.772 19.908C316.287 20.412 315.951 21.0467 315.764 21.812H312.964ZM313.384 28.168C312.899 28.168 312.488 28 312.152 27.664C311.816 27.328 311.648 26.936 311.648 26.488C311.648 25.928 311.825 25.4707 312.18 25.116C312.553 24.7613 313.001 24.584 313.524 24.584C314.028 24.584 314.439 24.7427 314.756 25.06C315.092 25.3773 315.26 25.7693 315.26 26.236C315.26 26.7773 315.073 27.2347 314.7 27.608C314.345 27.9813 313.907 28.168 313.384 28.168Z" fill="white"/>
</svg>
