<svg width="178" height="35" viewBox="0 0 178 35" fill="none" xmlns="http://www.w3.org/2000/svg">
<path d="M71.236 7.4L67.316 27H64.628L67.484 12.832L58.216 24.62H56.928L52.028 12.552L49.144 27H46.456L50.376 7.4H52.644L58.104 21.204L68.828 7.4H71.236ZM88.9062 12.16L78.3782 28.624C77.4262 30.1173 76.5209 31.1533 75.6622 31.732C74.8035 32.3107 73.7862 32.6 72.6102 32.6C71.8822 32.6 71.1729 32.4787 70.4822 32.236C69.7915 32.012 69.2595 31.6947 68.8862 31.284L70.2862 29.296C70.9582 29.968 71.7982 30.304 72.8062 30.304C73.4409 30.304 74.0009 30.136 74.4862 29.8C74.9715 29.464 75.4755 28.8947 75.9982 28.092L76.7542 26.916L73.1702 12.16H75.8582L78.7142 24.032L86.1902 12.16H88.9062ZM107.291 13.14C107.291 15.0627 106.777 16.668 105.751 17.956C104.724 19.244 103.277 20.1307 101.411 20.616L104.995 27H102.027L98.6108 21.008H98.0788H92.8428L91.6668 27H88.8388L92.7588 7.4H100.067C102.363 7.4 104.136 7.904 105.387 8.912C106.656 9.90133 107.291 11.3107 107.291 13.14ZM98.1628 18.628C100.179 18.628 101.737 18.18 102.839 17.284C103.94 16.388 104.491 15.0907 104.491 13.392C104.491 12.216 104.089 11.3293 103.287 10.732C102.484 10.1347 101.327 9.836 99.8148 9.836H95.0828L93.3188 18.628H98.1628ZM111.423 20.42V20.588C111.423 21.9693 111.815 23.024 112.599 23.752C113.383 24.4613 114.559 24.816 116.127 24.816C117.041 24.816 117.9 24.6667 118.703 24.368C119.505 24.0507 120.177 23.6307 120.719 23.108L121.867 25.04C121.139 25.712 120.252 26.2347 119.207 26.608C118.161 26.9813 117.06 27.168 115.903 27.168C114.447 27.168 113.187 26.9067 112.123 26.384C111.059 25.8613 110.237 25.1147 109.659 24.144C109.08 23.1733 108.791 22.0347 108.791 20.728C108.791 19.0667 109.145 17.5733 109.855 16.248C110.583 14.9227 111.581 13.8867 112.851 13.14C114.139 12.3933 115.576 12.02 117.163 12.02C119.179 12.02 120.784 12.5987 121.979 13.756C123.192 14.8947 123.799 16.4533 123.799 18.432C123.799 19.0293 123.733 19.692 123.603 20.42H111.423ZM117.051 14.26C115.725 14.26 114.587 14.6333 113.635 15.38C112.683 16.1267 112.039 17.1533 111.703 18.46H121.279C121.353 17.1347 120.999 16.108 120.215 15.38C119.449 14.6333 118.395 14.26 117.051 14.26ZM142.848 12.16L139.908 27H137.332L137.696 25.18C137.024 25.8147 136.24 26.3093 135.344 26.664C134.466 27 133.505 27.168 132.46 27.168C131.19 27.168 130.061 26.916 129.072 26.412C128.082 25.8893 127.308 25.1427 126.748 24.172C126.188 23.2013 125.908 22.0627 125.908 20.756C125.908 19.076 126.272 17.5733 127 16.248C127.728 14.9227 128.726 13.8867 129.996 13.14C131.284 12.3933 132.721 12.02 134.308 12.02C135.577 12.02 136.66 12.244 137.556 12.692C138.47 13.14 139.17 13.8027 139.656 14.68L140.16 12.16H142.848ZM133.048 24.816C134.149 24.816 135.138 24.5547 136.016 24.032C136.912 23.4907 137.602 22.744 138.088 21.792C138.592 20.84 138.844 19.7573 138.844 18.544C138.844 17.2187 138.461 16.192 137.696 15.464C136.93 14.736 135.838 14.372 134.42 14.372C133.318 14.372 132.329 14.6427 131.452 15.184C130.574 15.7067 129.884 16.444 129.38 17.396C128.876 18.348 128.624 19.4307 128.624 20.644C128.624 21.9507 129.006 22.9773 129.772 23.724C130.556 24.452 131.648 24.816 133.048 24.816ZM163.138 6.224L158.994 27H156.418L156.782 25.18C156.11 25.8147 155.326 26.3093 154.43 26.664C153.552 27 152.591 27.168 151.546 27.168C150.276 27.168 149.147 26.916 148.158 26.412C147.168 25.8893 146.394 25.1427 145.834 24.172C145.274 23.2013 144.994 22.0627 144.994 20.756C144.994 19.076 145.358 17.5733 146.086 16.248C146.814 14.9227 147.812 13.8867 149.082 13.14C150.37 12.3933 151.807 12.02 153.394 12.02C154.663 12.02 155.755 12.2533 156.67 12.72C157.603 13.168 158.303 13.8307 158.77 14.708L160.45 6.224H163.138ZM152.134 24.816C153.235 24.816 154.224 24.5547 155.102 24.032C155.998 23.4907 156.688 22.744 157.174 21.792C157.678 20.84 157.93 19.7573 157.93 18.544C157.93 17.2187 157.547 16.192 156.782 15.464C156.016 14.736 154.924 14.372 153.506 14.372C152.404 14.372 151.415 14.6427 150.538 15.184C149.66 15.7067 148.97 16.444 148.466 17.396C147.962 18.348 147.71 19.4307 147.71 20.644C147.71 21.9507 148.092 22.9773 148.858 23.724C149.642 24.452 150.734 24.816 152.134 24.816ZM168.784 27.168C167.552 27.168 166.376 27.0093 165.256 26.692C164.154 26.3747 163.296 25.964 162.68 25.46L163.884 23.332C164.462 23.7987 165.209 24.172 166.124 24.452C167.057 24.7133 168.028 24.844 169.036 24.844C170.305 24.844 171.266 24.6573 171.92 24.284C172.592 23.892 172.928 23.3507 172.928 22.66C172.928 22.1 172.657 21.6987 172.116 21.456C171.593 21.2133 170.772 20.9707 169.652 20.728C168.606 20.504 167.748 20.28 167.076 20.056C166.422 19.8133 165.862 19.44 165.396 18.936C164.929 18.4133 164.696 17.7133 164.696 16.836C164.696 15.8653 164.966 15.016 165.508 14.288C166.068 13.56 166.852 13 167.86 12.608C168.886 12.216 170.072 12.02 171.416 12.02C172.405 12.02 173.366 12.1413 174.3 12.384C175.233 12.6267 175.998 12.9533 176.596 13.364L175.532 15.492C174.953 15.1 174.281 14.8107 173.516 14.624C172.75 14.4187 171.966 14.316 171.164 14.316C169.95 14.316 169.017 14.5213 168.364 14.932C167.71 15.324 167.384 15.856 167.384 16.528C167.384 17.1253 167.654 17.5547 168.196 17.816C168.737 18.0587 169.577 18.3013 170.716 18.544C171.742 18.768 172.582 18.992 173.236 19.216C173.889 19.44 174.44 19.804 174.888 20.308C175.354 20.812 175.588 21.4933 175.588 22.352C175.588 23.864 174.962 25.0493 173.712 25.908C172.48 26.748 170.837 27.168 168.784 27.168Z" fill="white"/>
<path d="M10.64 1L0 7.16V21.24C0 27.72 5.2 33 11.68 33C13.84 33 15.84 32.44 17.6 31.48L26.24 26.52C29.68 24.68 32 21.16 32 17V2.28L29.92 1.08L20.8 5.96V21.32C20.8 21.96 20.72 22.6 20.64 23.24C20.48 23.88 20.32 24.44 20.08 25L19.84 25.48C19.52 25.48 17.52 24.76 16.48 24.04C16 23.72 15.6 23.4 15.2 23C14.8 22.6 14.48 22.2 14.16 21.72C13.84 21.24 13.6 20.76 13.36 20.28C13.12 19.8 12.96 19.24 12.88 18.68C12.8 18.12 12.8 17.56 12.8 17V2.28L10.64 1ZM15.84 29.96C15.28 30.2 14.48 30.52 13.84 30.68C13.2 30.84 12.64 30.84 12 30.84C11.36 30.84 10.72 30.76 10.08 30.6C9.44 30.44 8.88 30.28 8.32 30.04C7.76 29.8 7.2 29.48 6.72 29.16C5.28 28.28 4.56 27.48 4 26.6C3.68 26.12 3.36 25.56 3.12 25C2.88 24.44 2.72 23.8 2.56 23.16C2.4 22.52 2.4 21.88 2.4 21.24V8.36L10.4 3.48V17C10.4 22.12 14.16 26.44 18.96 27.48C18.8 27.72 18.64 27.96 18.4 28.12C17.52 29 16.8 29.56 15.84 29.96V29.96ZM29.44 18.76C29.36 19.32 29.12 19.88 28.96 20.36C28.72 20.84 28.48 21.32 28.16 21.8C27.84 22.28 26.88 23.48 25.6 24.2C24.32 24.92 23.12 25.16 22.4 25.32C22.88 24.04 23.2 22.76 23.2 21.32V7.16L29.6 3.48V17C29.6 17.64 29.6 18.2 29.44 18.76V18.76Z" fill="#1EB4E2"/>
</svg>
