<svg width="512" height="512" viewBox="0 0 512 512" fill="none" xmlns="http://www.w3.org/2000/svg">
<path d="M255.997 493.882C387.402 493.882 493.927 387.357 493.927 255.952C493.927 124.547 387.402 18.022 255.997 18.022C124.592 18.022 18.067 124.547 18.067 255.952C18.067 387.357 124.592 493.882 255.997 493.882Z" fill="#474B63"/>
<path d="M89.855 255.955C89.855 136.749 177.519 38.0231 291.894 20.7151C146.914 -1.22191 18.065 111.095 18.065 255.955C18.065 400.792 146.894 513.136 291.894 491.195C177.519 473.888 89.855 375.161 89.855 255.955Z" fill="#3E4356"/>
<path d="M256 0C114.84 0 0 114.82 0 255.954C0 397.061 114.858 511.913 256 511.913C397.16 511.913 512 397.09 512 255.954C512 115.077 397.358 0 256 0ZM407.134 426.726V426.728C265.842 556.548 27.813 454.61 27.813 255.955C27.813 255.955 22.526 112.43 160.256 48.893C251.444 6.521 359.761 29.194 426.802 104.846V104.848C488.73 174.735 484.186 255.954 484.186 255.954C484.186 321.134 456.4 383.082 407.134 426.726Z" fill="#6EDCF9"/>
<path d="M27.813 255.955C27.813 255.955 27.813 255.934 27.813 255.937C27.956 125.371 130.484 7.99794 270.068 0.391936C123.086 -7.63706 0 109.741 0 255.954C0 397.061 114.858 511.913 256 511.913C260.727 511.913 265.422 511.774 270.087 511.52C134.621 504.144 27.813 391.129 27.813 255.955Z" fill="#37CAE2"/>
</svg>
