<svg width="32" height="32" viewBox="0 0 32 32" fill="none" xmlns="http://www.w3.org/2000/svg">
<path d="M10.64 0L0 6.16V20.24C0 26.72 5.2 32 11.68 32C13.84 32 15.84 31.44 17.6 30.48L26.24 25.52C29.68 23.68 32 20.16 32 16V1.28L29.92 0.08L20.8 4.96V20.32C20.8 20.96 20.72 21.6 20.64 22.24C20.48 22.88 20.32 23.44 20.08 24L19.84 24.48C19.52 24.48 17.52 23.76 16.48 23.04C16 22.72 15.6 22.4 15.2 22C14.8 21.6 14.48 21.2 14.16 20.72C13.84 20.24 13.6 19.76 13.36 19.28C13.12 18.8 12.96 18.24 12.88 17.68C12.8 17.12 12.8 16.56 12.8 16V1.28L10.64 0ZM15.84 28.96C15.28 29.2 14.48 29.52 13.84 29.68C13.2 29.84 12.64 29.84 12 29.84C11.36 29.84 10.72 29.76 10.08 29.6C9.44 29.44 8.88 29.28 8.32 29.04C7.76 28.8 7.2 28.48 6.72 28.16C5.28 27.28 4.56 26.48 4 25.6C3.68 25.12 3.36 24.56 3.12 24C2.88 23.44 2.72 22.8 2.56 22.16C2.4 21.52 2.4 20.88 2.4 20.24V7.36L10.4 2.48V16C10.4 21.12 14.16 25.44 18.96 26.48C18.8 26.72 18.64 26.96 18.4 27.12C17.52 28 16.8 28.56 15.84 28.96ZM29.44 17.76C29.36 18.32 29.12 18.88 28.96 19.36C28.72 19.84 28.48 20.32 28.16 20.8C27.84 21.28 26.88 22.48 25.6 23.2C24.32 23.92 23.12 24.16 22.4 24.32C22.88 23.04 23.2 21.76 23.2 20.32V6.16L29.6 2.48V16C29.6 16.64 29.6 17.2 29.44 17.76Z" fill="#1EB4E2"/>
</svg>
